<svg width="274" height="416" viewBox="0 0 274 416" fill="none" xmlns="http://www.w3.org/2000/svg">
<path d="M206.981 0C207.182 0.0101947 208.997 0.141238 209.118 0.255635C218.015 8.39084 226.152 18.2198 234.83 26.7254C247.449 38.8991 260.191 51.264 271.651 64.4662C273.329 66.3996 258.442 79.3248 256.202 81.2135C249.436 86.9181 239.616 98.9604 231.991 102.865C227.078 103.074 212.434 85.4651 207.059 81.2852C200.526 85.046 181.366 105.112 174.473 111.496C169.911 117.507 156.95 128.219 153.1 133.115C146.323 141.734 76.0815 203.398 76.6393 208.026C81.0079 214.217 88.5411 221.075 93.9437 226.73C108.222 241.673 123.004 256.312 137.541 271.011L182.122 316.82C188.097 322.984 202.118 339.239 209.342 342.787C216.634 338.557 223.49 331.902 230.114 326.683C232.799 324.569 237.741 318.574 241.163 318.435C247.286 321.288 252.934 329.667 257.704 334.924C260.897 338.444 272.607 350.069 273.504 354.582C274.125 357.71 263.046 365.814 260.108 368.21C256.727 370.56 253.447 374.494 250.273 377.276C247.314 379.869 244.167 382.051 241.227 384.592L218.726 404.245C214.586 407.87 209.038 413.907 204.328 416C204.135 415.88 203.941 415.76 203.747 415.641C189.528 402.584 174.1 384.452 160.868 370.832L52.5322 257.224C36.4323 240.283 19.8628 223.643 3.84144 206.609C-3.1995 199.124 0.475858 196.513 6.55484 190.601C22.0972 175.484 38.2912 160.955 54.1028 146.131L136.638 66.4298C139.296 63.9429 141.816 61.3983 144.416 58.8627C154.445 49.0807 165.082 39.8216 175.151 30.0748L196.246 9.99272C199.755 6.68819 203.279 3.05309 206.981 0Z" fill="#1E9FD9"/>
</svg>
