<svg width="86" height="64" viewBox="0 0 86 64" fill="none" xmlns="http://www.w3.org/2000/svg">
<path d="M54.3642 2C54.4481 2.02212 54.5296 2.05234 54.6076 2.09024C54.8599 2.21001 59.022 6.05493 59.4835 6.47102L73.5967 19.1623C74.4565 19.9408 78.5565 23.3334 78.8027 24.0071L78.7401 24.1047C78.6039 24.1564 78.3838 24.2247 78.2408 24.2299C74.722 24.3568 71.1853 24.2781 67.6637 24.301C66.961 24.2884 66.5649 24.1015 66.0461 23.6668C62.1011 20.3607 58.4264 16.4119 54.3992 13.2421C53.8879 14.2121 51.9778 15.9029 51.1497 16.7841L39.9583 28.5464L36.9475 31.7075C36.5318 32.1386 35.8443 32.7261 35.5274 33.1753C35.4184 33.892 36.5633 34.4933 36.9982 34.9924C37.8695 35.9923 38.9395 36.8106 39.8828 37.7081L49.7955 47.1609L53.1042 50.3393C53.7769 50.9849 54.5729 51.8595 55.3667 52.3116C55.5408 52.3106 55.7826 52.1856 55.9084 52.0706C59.5553 48.7349 63.0614 45.2326 66.7087 41.8908C66.9159 41.7008 67.0342 41.4274 67.1309 41.1681C64.5579 41.1982 61.9847 41.1981 59.4117 41.1676C58.2828 41.163 56.526 41.2066 55.4785 41.033C54.6753 40.8998 52.7254 38.9182 52.1387 38.3636C51.528 37.7862 47.8943 34.6471 47.8352 34.0603C48.1677 33.8437 53.593 33.9221 54.4645 33.9239L73.4027 33.9152C74.9145 33.9124 85.3823 33.7711 85.9979 34.013C86.0336 34.3081 85.6127 34.7687 85.4029 34.9684C83.4798 36.7983 81.5814 38.6514 79.6687 40.4907L64.2758 55.2467L58.7332 60.5634C57.8842 61.3795 55.9151 63.4805 54.9549 64C54.639 63.9209 54.0348 63.4119 53.7929 63.1728C50.7022 60.118 47.6489 57.0121 44.5786 53.9401L33.4575 42.8835C30.6092 40.0395 27.6802 37.2326 24.8228 34.3941C24.4894 34.0629 23.9391 33.5699 24.0055 33.0645C25.1623 31.5811 27.7789 29.1218 29.1724 27.6867L41.7363 14.8804L49.8759 6.51154C50.6345 5.7369 51.218 5.00258 52.0732 4.28885C52.8083 3.67534 53.5364 2.50531 54.3642 2Z" fill="white"/>
<path d="M31.1748 0C31.2051 0.00152307 31.4771 0.0211005 31.4952 0.0381912C32.8287 1.25357 34.0485 2.72199 35.3492 3.99271C37.2408 5.81143 39.1507 7.65872 40.8685 9.63109C41.12 9.91994 38.8886 11.8509 38.5528 12.1331C37.5386 12.9853 36.0667 14.7845 34.9237 15.3678C34.1873 15.399 31.9922 12.7683 31.1866 12.1438C30.2073 12.7057 27.3353 15.7035 26.3022 16.6573C25.6183 17.5553 23.5257 19.0062 22.9486 19.7377C21.9328 21.0253 11.4041 30.2377 11.4877 30.9292C12.1425 31.8541 13.2717 32.8787 14.0815 33.7235C16.2217 35.956 18.4375 38.143 20.6164 40.339L27.2988 47.1827C28.1944 48.1036 30.296 50.5321 31.3789 51.0622C32.4719 50.4302 33.4995 49.4359 34.4925 48.6563C34.8949 48.3405 35.6357 47.4448 36.1486 47.424C37.0665 47.8502 37.913 49.1021 38.628 49.8875C39.1066 50.4133 40.8619 52.1501 40.9962 52.8243C41.0893 53.2916 39.4287 54.5023 38.9884 54.8603C38.4815 55.2114 37.9898 55.7991 37.5141 56.2147C37.0706 56.6021 36.5989 56.9281 36.1582 57.3077L32.7855 60.2439C32.1649 60.7854 31.3333 61.6874 30.6273 62C30.5983 61.9821 30.5693 61.9641 30.5403 61.9463C28.4088 59.9956 26.0964 57.2868 24.1129 55.252L7.8742 38.2792C5.46094 35.7483 2.97729 33.2623 0.575805 30.7175C-0.479583 29.5992 0.0713277 29.2091 0.982523 28.3259C3.31222 26.0676 5.73959 23.8969 8.10962 21.6822L20.6309 9.92445C21.0293 9.55292 21.4072 9.17276 21.7968 8.79395C23.3002 7.33254 24.8946 5.94925 26.4037 4.4931L29.5657 1.49289C30.0917 0.999199 30.62 0.456125 31.1748 0Z" fill="white"/>
</svg>
