<svg width="189" height="291" viewBox="0 0 189 291" fill="none" xmlns="http://www.w3.org/2000/svg">
<path d="M143.5 0C143.639 0.00714829 144.891 0.0990322 144.975 0.179245C151.113 5.88345 156.728 12.7753 162.715 18.7392C171.422 27.2751 180.213 35.9451 188.121 45.2021C189.278 46.5577 179.007 55.6206 177.461 56.9449C172.793 60.9448 166.018 69.3886 160.757 72.1265C157.367 72.2729 147.263 59.926 143.554 56.9952C139.046 59.6321 125.826 73.7023 121.071 78.1785C117.923 82.3931 108.29 89.2027 105.634 92.6357C100.958 98.6792 52.4938 141.916 52.8787 145.161C55.8928 149.503 61.0905 154.311 64.8181 158.276C74.6698 168.754 84.8691 179.019 94.8987 189.325L125.658 221.445C129.781 225.767 139.455 237.165 144.439 239.653C149.47 236.686 154.201 232.02 158.772 228.361C160.624 226.879 164.034 222.675 166.395 222.578C170.62 224.578 174.516 230.453 177.807 234.14C180.01 236.607 188.09 244.759 188.709 247.923C189.137 250.116 181.493 255.799 179.466 257.479C177.133 259.126 174.87 261.885 172.68 263.835C170.638 265.654 168.468 267.183 166.439 268.965L150.914 282.746C148.057 285.287 144.229 289.52 140.98 290.988C140.846 290.904 140.713 290.819 140.579 290.736C130.768 281.58 120.124 268.867 110.994 259.317L36.2455 179.658C25.1371 167.779 13.7047 156.112 2.65047 144.168C-2.20755 138.919 0.328327 137.089 4.52263 132.943C15.2464 122.344 26.4197 112.157 37.3292 101.762L94.9656 46.5789C96.7996 44.8352 98.5387 43.051 100.332 41.2731C107.252 34.4142 114.592 27.9219 121.538 21.0877L136.093 7.00665C138.514 4.68959 140.946 2.14075 143.5 0Z" fill="#1E9FD9"/>
</svg>
