<svg width="287" height="286" viewBox="0 0 287 286" fill="none" xmlns="http://www.w3.org/2000/svg">
<path d="M140.54 0C140.929 0.101879 141.306 0.24108 141.667 0.415613C142.835 0.967264 162.099 18.6761 164.235 20.5925L229.558 79.0456C233.537 82.6314 252.514 98.2571 253.654 101.36L253.364 101.809C252.734 102.048 251.715 102.362 251.053 102.386C234.766 102.971 218.396 102.608 202.097 102.714C198.845 102.656 197.011 101.795 194.61 99.7924C176.351 84.5653 159.342 66.378 140.702 51.7787C138.336 56.246 129.495 64.0336 125.662 68.0923L73.8627 122.267L59.9273 136.826C58.0035 138.812 54.8212 141.518 53.3543 143.586C52.85 146.888 58.1489 149.657 60.1619 151.956C64.1947 156.561 69.1473 160.33 73.5132 164.464L119.394 208.001L134.708 222.64C137.822 225.614 141.506 229.642 145.18 231.724C145.986 231.719 147.105 231.144 147.688 230.614C164.567 215.251 180.795 199.12 197.677 183.728C198.636 182.853 199.183 181.594 199.631 180.399C187.722 180.538 175.812 180.538 163.902 180.398C158.678 180.376 150.546 180.577 145.698 179.777C141.98 179.164 132.955 170.037 130.24 167.483C127.413 164.823 110.595 150.366 110.321 147.663C111.86 146.665 136.971 147.026 141.005 147.034L228.66 146.995C235.657 146.982 284.107 146.331 286.956 147.445C287.122 148.804 285.174 150.925 284.203 151.845C275.301 160.273 266.515 168.808 257.662 177.28L186.416 245.243L160.762 269.73C156.832 273.489 147.718 283.166 143.275 285.558C141.812 285.194 139.016 282.85 137.896 281.749C123.591 267.679 109.459 253.374 95.2479 239.224L43.7738 188.3C30.5906 175.202 17.0337 162.273 3.80812 149.2C2.26508 147.675 -0.282041 145.404 0.0254856 143.076C5.37982 136.244 17.4905 124.917 23.9403 118.307L82.0924 59.3242L119.766 20.7792C123.277 17.2113 125.978 13.8292 129.936 10.542C133.339 7.71626 136.709 2.32734 140.54 0Z" fill="#9DB03C"/>
</svg>
