<svg width="57" height="55" viewBox="0 0 57 55" fill="none" xmlns="http://www.w3.org/2000/svg">
<g clip-path="url(#clip0_690_2070)">
<path d="M56.1223 32.4114L49.6715 17.0237C49.4736 16.5503 49.1038 16.1849 48.6135 15.9856C48.1232 15.7946 47.5814 15.8029 47.0997 16.0105L42.0766 18.1696C41.2251 18.5184 40.7692 19.4153 40.9499 20.2706L39.6167 20.9931C39.1694 21.2422 38.6275 21.3336 38.1029 21.2671L28.8394 19.9467C27.2224 19.7225 25.5623 20.2374 24.3926 21.3253L23.7131 21.9564H18.5696C18.3373 21.9564 18.1051 21.8733 17.9331 21.7239L17.4772 21.3502C17.7955 20.5945 17.5804 19.7142 16.8923 19.1911L13.0046 16.2264C12.5918 15.9109 12.0757 15.7697 11.551 15.8445C11.0349 15.9109 10.5619 16.1849 10.2522 16.5835L0.885548 28.8406C0.266263 29.6461 0.412483 30.7755 1.2382 31.4149L5.11733 34.3712C5.46998 34.637 5.88283 34.7698 6.31289 34.7698C6.39891 34.7698 6.49352 34.7615 6.57953 34.7532C7.0956 34.6868 7.56007 34.421 7.86971 34.0058L7.90411 33.9643L8.46319 34.3712C8.79003 34.5954 8.97926 34.9774 8.97926 35.376V37.6099L7.53426 39.4036C6.24408 41.0229 6.53652 43.3564 8.20515 44.602C8.88465 45.1169 9.71036 45.3909 10.5619 45.3909C10.7167 45.3909 10.8801 45.3826 11.0349 45.366C11.207 45.3411 11.3704 45.2996 11.5338 45.2581C11.5338 45.3079 11.5252 45.3494 11.5252 45.3993C11.5252 46.4622 12.0241 47.4587 12.8842 48.1397C13.5551 48.6545 14.3636 48.9119 15.1635 48.9119C15.6624 48.9119 16.1612 48.804 16.6257 48.613V48.6545C16.7461 49.5265 17.2192 50.2988 17.9073 50.7887L18.0621 50.905C18.647 51.3202 19.3437 51.5444 20.0576 51.5444C20.221 51.5444 20.3844 51.5361 20.5564 51.5112C20.9263 51.4613 21.2617 51.3368 21.5886 51.179C21.7692 52.0676 22.2939 52.8315 23.0766 53.3132L23.1884 53.3879C23.7475 53.745 24.3926 53.9277 25.0463 53.9277C25.2871 53.9277 25.5193 53.9028 25.7602 53.853C26.6633 53.6703 27.4288 53.1554 27.9363 52.408L28.0825 52.1921C28.6932 52.6405 29.4243 52.8731 30.207 52.8731C31.1273 52.8731 32.0304 52.5077 32.6841 51.8849C33.398 51.1956 33.7765 50.2323 33.7077 49.2607C33.7077 49.2026 33.6991 49.1362 33.6905 49.078C34.6968 49.2192 35.7547 48.9119 36.5202 48.1729C37.2083 47.5085 37.561 46.5785 37.4836 45.6401C37.475 45.5238 37.4578 45.4076 37.432 45.2913C38.5759 45.3577 39.7027 44.9176 40.4768 44.0291C41.1391 43.2734 41.4487 42.2769 41.3197 41.297C41.3111 41.2222 41.3025 41.1558 41.2853 41.081C42.326 41.189 43.384 40.8402 44.1581 40.1094C45.0096 39.2873 45.3279 38.1247 45.0956 37.0286C45.1386 37.0203 45.1816 37.0286 45.2246 37.0203L47.9942 36.6466C48.3469 36.9538 48.8199 37.1282 49.293 37.1282C49.5596 37.1282 49.8263 37.0784 50.0757 36.9621L55.116 34.8113C56.0621 34.4127 56.5094 33.3498 56.1223 32.4114ZM6.3731 33.3415C6.24408 33.3581 6.12367 33.3249 6.02906 33.2501L2.16712 30.3021C1.9779 30.1527 1.93489 29.8869 2.08111 29.6959L11.4392 17.414C11.5338 17.2894 11.6628 17.2562 11.7402 17.2479H11.8004C11.8779 17.2479 11.9811 17.2645 12.0757 17.3392L15.972 20.3038C16.1612 20.445 16.1957 20.7107 16.058 20.8851L15.9376 21.0429C15.929 21.0512 15.9204 21.0595 15.9118 21.0678L10.5275 28.1098C10.5189 28.1181 10.5189 28.1181 10.5103 28.1264L9.48673 29.4717L7.13861 32.5443C7.13001 32.5526 7.13001 32.5609 7.13001 32.5609L6.66554 33.1754C6.57953 33.2917 6.45911 33.3332 6.3731 33.3415ZM10.8629 43.946C10.2436 44.0207 9.62435 43.8547 9.12548 43.481C8.11054 42.717 7.92132 41.2803 8.72123 40.2838L11.4908 36.8376C11.9553 36.2563 12.652 35.9573 13.3573 35.9573C13.8561 35.9573 14.3636 36.1151 14.7937 36.4307C15.3699 36.8708 15.7054 37.5268 15.7054 38.2327C15.7054 38.7393 15.5334 39.2209 15.2065 39.6361L12.4369 43.0824C12.0413 43.564 11.4822 43.8713 10.8629 43.946ZM13.8217 47.0269C13.3057 46.62 13.0132 46.0304 13.0132 45.3993C13.0132 44.9425 13.1766 44.4941 13.4949 44.1038L16.2559 40.6658C16.6085 40.2174 17.1246 39.9434 17.7009 39.8769C17.7869 39.8603 17.8729 39.8603 17.9503 39.8603C18.4406 39.8603 18.9222 40.0264 19.3695 40.3752C20.2984 41.0977 20.4446 42.418 19.6963 43.3149L16.8665 46.7196C16.1182 47.5999 14.7507 47.741 13.8217 47.0269ZM20.3328 50.0911C19.834 50.1576 19.3437 50.0413 18.991 49.7922L18.8448 49.6759C18.432 49.3853 18.1739 48.9535 18.1051 48.4635C18.0363 47.9653 18.1825 47.4753 18.5008 47.085L20.5995 44.5771C20.9607 44.137 21.5112 43.9045 22.0617 43.9045C22.4487 43.9045 22.8444 44.0207 23.1712 44.2616C23.6443 44.602 23.9195 45.1335 23.9195 45.7065C23.9195 46.0802 23.8077 46.429 23.5927 46.7279C23.5755 46.7445 23.5669 46.7694 23.5497 46.7944C23.5411 46.8027 23.5411 46.811 23.5325 46.811L23.4981 46.8608L21.5456 49.3853C21.2703 49.7756 20.8317 50.0247 20.3328 50.0911ZM27.6696 50.1493L26.6805 51.6357C26.3967 52.0593 25.958 52.3499 25.4419 52.4579C24.9345 52.5575 24.4184 52.4662 23.9969 52.2004L23.8851 52.1257C23.4292 51.8433 23.1282 51.4032 23.0336 50.8967C22.939 50.3901 23.0508 49.8835 23.369 49.46C23.8851 48.804 24.47 48.0732 24.7022 47.7992C24.7452 47.7577 24.7882 47.7078 24.8312 47.6746C24.8398 47.6746 24.8398 47.6663 24.8398 47.6663C24.8484 47.658 24.8656 47.6497 24.8742 47.6414C24.9172 47.6082 24.9517 47.575 25.0205 47.5334C25.6656 47.1598 26.4741 47.1597 27.1019 47.55C27.6524 47.8905 27.9879 48.4884 27.9879 49.1362C27.9793 49.5015 27.8761 49.8503 27.6696 50.1493ZM43.1087 39.0963C42.4035 39.769 41.2595 39.852 40.4682 39.2956L35.5225 35.7663L33.5958 34.3878C33.269 34.1553 32.8045 34.2217 32.5551 34.5373C32.3143 34.8529 32.3831 35.3013 32.7099 35.5421L36.0816 37.9503L38.9372 39.9932C39.436 40.3503 39.7543 40.8734 39.8317 41.4713C39.9091 42.0693 39.7285 42.6505 39.3242 43.1156C38.5845 43.9626 37.2771 44.1204 36.3396 43.481L30.4134 39.387C30.078 39.1545 29.6135 39.2292 29.3813 39.5531C29.1404 39.8769 29.2178 40.3254 29.5533 40.5496L35.2215 44.4609C35.6601 44.7681 35.9354 45.2415 35.987 45.7563C36.03 46.2795 35.8408 46.7861 35.4537 47.1598C34.8086 47.7909 33.7679 47.849 33.0368 47.3175L27.446 43.1156C27.1192 42.8748 26.6547 42.9246 26.4053 43.2401C26.1558 43.5474 26.2074 44.0041 26.5257 44.245L31.4111 47.932C31.8756 48.2808 32.168 48.804 32.2024 49.3687C32.2455 49.9417 32.0304 50.4814 31.609 50.8884C30.9209 51.5527 29.7597 51.6274 28.9856 51.0877C28.9856 51.0877 28.9426 51.0378 28.8824 50.9797L28.8996 50.9548C29.2608 50.4233 29.4501 49.8005 29.4501 49.1445C29.4501 48.0068 28.8652 46.9688 27.8847 46.3542C27.1364 45.8892 26.2418 45.748 25.3903 45.8975C25.3903 45.8394 25.3989 45.7812 25.3989 45.7231C25.3989 44.6851 24.9086 43.7384 24.0571 43.1239C23.3174 42.5924 22.4315 42.3931 21.5886 42.5094C21.7606 41.3136 21.3048 40.0596 20.2296 39.2209C19.4641 38.6147 18.4922 38.349 17.5116 38.4569C17.3826 38.4735 17.2622 38.5067 17.1418 38.5316C17.1504 38.432 17.1676 38.3406 17.1676 38.241C17.1676 37.0867 16.6343 36.0238 15.6882 35.3096C14.269 34.2467 12.3165 34.3048 10.9575 35.3345C10.9575 35.3262 10.9575 35.3262 10.9661 35.3179C10.9489 35.3345 10.9317 35.3511 10.9145 35.3594C10.8285 35.4259 10.7425 35.5089 10.6651 35.5836C10.5963 35.6501 10.5189 35.7082 10.4501 35.7829V35.3843C10.4501 34.5207 10.0286 33.7152 9.33191 33.2252L8.76423 32.8183L9.84798 31.3983L11.2156 29.6046L11.6456 29.0482C11.6714 29.0233 11.6886 28.9984 11.7144 28.9735L16.6257 22.5377L16.944 22.7951C17.3826 23.1688 17.9589 23.3764 18.5524 23.3764H22.1477L20.0834 25.2864C19.6017 25.7348 19.3351 26.341 19.3351 26.9887C19.3351 27.9188 19.8684 28.7409 20.7371 29.1312C22.853 30.1111 25.3559 30.0613 27.4288 29.0067L28.3233 28.5582C29.1662 28.1264 30.1984 28.2261 30.9467 28.8074L39.6769 35.5587C40.1843 35.9407 40.7176 36.2563 41.2681 36.4888C41.4487 36.5635 41.6465 36.6383 41.8186 36.6964C41.9734 36.7545 42.1368 36.8044 42.2744 36.8376C42.4637 36.8957 42.6529 36.9372 42.8163 36.9621C43.0399 37.0037 43.255 37.0369 43.4356 37.0452C43.5216 37.0535 43.599 37.0535 43.685 37.0618C43.6506 37.0701 43.6248 37.0784 43.5904 37.0867C43.8312 37.776 43.6592 38.5649 43.1087 39.0963ZM45.0182 35.6086C44.7344 35.6418 44.4247 35.6584 44.0721 35.6501C43.9259 35.6501 43.7882 35.6418 43.5904 35.6169C43.4184 35.6086 43.2636 35.5753 43.0743 35.5421C42.9539 35.5255 42.8335 35.5006 42.6787 35.4508C42.5583 35.4259 42.4465 35.3843 42.3346 35.3428C42.1798 35.293 42.0164 35.2266 41.8702 35.1684C41.4401 34.9857 41.0101 34.7366 40.6058 34.4293L32.3229 28.0185L31.8756 27.678C31.1703 27.1299 30.3102 26.8476 29.4415 26.8476C28.8222 26.8476 28.2029 26.9887 27.6438 27.2794L26.7493 27.7278C25.0893 28.5749 23.0852 28.6164 21.3908 27.8275C20.9865 27.6448 20.8403 27.2711 20.8403 26.9804C20.8403 26.8061 20.8919 26.5403 21.1327 26.3161L25.4247 22.3467C26.2676 21.5661 27.4632 21.1924 28.6244 21.3585L37.8964 22.6788C38.748 22.7951 39.6253 22.6373 40.3478 22.2387L41.4831 21.6242L43.3066 25.9756L47.2287 35.3096L45.0182 35.6086ZM54.5139 33.5159L49.465 35.6667C49.2672 35.7497 49.0264 35.6833 48.8801 35.4425L43.513 22.6456L42.8163 21.0014L42.4207 20.0547C42.326 19.8388 42.4293 19.5897 42.6615 19.49L47.7018 17.3309C47.8136 17.2811 47.9426 17.2811 48.0544 17.3226C48.1662 17.3641 48.2523 17.4472 48.2953 17.5634L54.7462 32.9595C54.8322 33.1671 54.7289 33.4162 54.5139 33.5159Z" fill="#9D864D"/>
<path d="M28.3838 17.9538C33.2607 17.9538 37.2258 14.1255 37.2258 9.41701C37.2258 4.70851 33.2607 0.871948 28.3838 0.871948C23.507 0.871948 19.5332 4.7002 19.5332 9.41701C19.5418 14.1255 23.507 17.9538 28.3838 17.9538ZM28.3838 2.30858C32.4436 2.30858 35.7378 5.49741 35.7378 9.41701C35.7378 13.3366 32.435 16.5171 28.3838 16.5171C24.3241 16.5171 21.0212 13.3283 21.0212 9.41701C21.0212 5.49741 24.3241 2.30858 28.3838 2.30858Z" fill="#9D864D"/>
<path d="M26.5775 12.0163C26.7151 12.1492 26.9043 12.2239 27.1022 12.2239C27.3 12.2239 27.4892 12.1492 27.6268 12.0163L31.9532 7.83926C32.2457 7.55691 32.2457 7.10848 31.9532 6.82614C31.6608 6.54379 31.1963 6.54379 30.9039 6.82614L27.1022 10.4966L25.8722 9.30911C25.5797 9.02676 25.1153 9.02676 24.8228 9.30911C24.5304 9.59145 24.5304 10.0399 24.8228 10.3222L26.5775 12.0163Z" fill="#9D864D"/>
</g>
<defs>
<clipPath id="clip0_690_2070">
<rect width="56.7678" height="54.808" fill="white"/>
</clipPath>
</defs>
</svg>
