<svg width="44" height="44" viewBox="0 0 44 44" fill="none" xmlns="http://www.w3.org/2000/svg">
<path d="M35.4062 35H8.59375C6.88188 35 5.5 33.6042 5.5 31.875V13.125C5.5 11.3958 6.88188 10 8.59375 10H35.4062C37.1181 10 38.5 11.3958 38.5 13.125V31.875C38.5 33.6042 37.1181 35 35.4062 35ZM8.59375 12.0833C8.01625 12.0833 7.5625 12.5417 7.5625 13.125V31.875C7.5625 32.4583 8.01625 32.9167 8.59375 32.9167H35.4062C35.9837 32.9167 36.4375 32.4583 36.4375 31.875V13.125C36.4375 12.5417 35.9837 12.0833 35.4062 12.0833H8.59375Z" fill="#9D864D"/>
<path d="M22 26.9792C20.5915 26.9792 19.3038 26.398 18.338 25.3394L7.77458 13.757C7.39229 13.3419 7.41241 12.6776 7.81482 12.2833C8.21724 11.8889 8.86111 11.9096 9.2434 12.3248L19.8068 23.9072C20.9537 25.1734 23.0463 25.1734 24.1932 23.9072L34.7566 12.3455C35.1389 11.9304 35.7828 11.9096 36.1852 12.304C36.5876 12.6984 36.6077 13.3626 36.2254 13.7778L25.662 25.3602C24.6962 26.4188 23.4085 27 22 27V26.9792Z" fill="#9D864D"/>
</svg>
