<svg width="17" height="17" viewBox="0 0 17 17" fill="none" xmlns="http://www.w3.org/2000/svg">
<path d="M8.46777 2.32314C9.27882 1.51216 10.3788 1.05659 11.5257 1.05664C12.6727 1.05669 13.7726 1.51236 14.5836 2.3234C15.3946 3.13444 15.8501 4.23443 15.8501 5.38136C15.85 6.5283 15.3944 7.62824 14.5833 8.43922L7.95634 15.0657C7.70907 15.3193 7.41391 15.5213 7.08796 15.66C6.76202 15.7986 6.41178 15.8712 6.05758 15.8734C5.70337 15.8757 5.35224 15.8076 5.02456 15.6731C4.69688 15.5386 4.39918 15.3403 4.14871 15.0899C3.89824 14.8394 3.7 14.5417 3.56549 14.214C3.43098 13.8863 3.36287 13.5352 3.36512 13.181C3.36737 12.8268 3.43993 12.4765 3.57859 12.1506C3.71726 11.8247 3.91926 11.5295 4.17289 11.2822L10.0586 5.39544C10.1825 5.2715 10.3505 5.20185 10.5257 5.2018C10.701 5.20175 10.869 5.27131 10.993 5.39518C11.1169 5.51905 11.1866 5.68708 11.1866 5.86231C11.1867 6.03754 11.1171 6.20561 10.9932 6.32955L5.10594 12.2153C4.98011 12.3411 4.8803 12.4905 4.8122 12.6549C4.74411 12.8193 4.70906 12.9955 4.70906 13.1734C4.70906 13.5328 4.85182 13.8775 5.10594 14.1316C5.36005 14.3857 5.70471 14.5284 6.06409 14.5284C6.42346 14.5284 6.76812 14.3857 7.02223 14.1316L13.6492 7.50458C13.9281 7.22566 14.1494 6.89454 14.3003 6.53011C14.4513 6.16569 14.529 5.7751 14.529 5.38065C14.529 4.9862 14.4513 4.59561 14.3003 4.23118C14.1494 3.86676 13.9281 3.53563 13.6492 3.25672C13.3703 2.9778 13.0392 2.75655 12.6748 2.6056C12.3103 2.45465 11.9197 2.37695 11.5253 2.37695C11.1308 2.37695 10.7402 2.45465 10.3758 2.6056C10.0114 2.75655 9.68027 2.9778 9.40135 3.25672L2.18421 10.4754C2.06034 10.5993 1.89233 10.6689 1.71715 10.6689C1.54198 10.6689 1.37397 10.5993 1.2501 10.4754C1.12623 10.3516 1.05664 10.1836 1.05664 10.0084C1.05664 9.83321 1.12623 9.66521 1.2501 9.54134L8.46777 2.32314Z" fill="black"/>
</svg>
