<svg width="41" height="41" viewBox="0 0 41 41" fill="none" xmlns="http://www.w3.org/2000/svg">
<g clip-path="url(#clip0_483_2500)">
<path d="M37.1562 0.960841H3.84375C3.08791 0.953149 2.35989 1.24561 1.81944 1.77406C1.27898 2.30251 0.97023 3.02377 0.960938 3.77959V37.2266C0.971911 37.9813 1.2814 38.7009 1.82167 39.228C2.36195 39.7551 3.08901 40.0467 3.84375 40.039H37.1562C37.9121 40.045 38.6397 39.7515 39.1798 39.2227C39.72 38.694 40.0289 37.9729 40.0391 37.217V3.76998C40.0256 3.01638 39.7152 2.29855 39.1754 1.77253C38.6356 1.24651 37.91 0.954813 37.1562 0.960841Z" fill="#0076B2"/>
<path d="M6.74592 15.6089H12.5468V34.2735H6.74592V15.6089ZM9.64795 6.31982C10.3133 6.31982 10.9637 6.51716 11.5168 6.88686C12.07 7.25657 12.5011 7.78203 12.7555 8.39677C13.01 9.01152 13.0764 9.68793 12.9464 10.3404C12.8163 10.9929 12.4957 11.5922 12.025 12.0624C11.5543 12.5327 10.9548 12.8527 10.3021 12.9822C9.6495 13.1116 8.97316 13.0445 8.35866 12.7895C7.74415 12.5344 7.2191 12.1028 6.84993 11.5493C6.48075 10.9958 6.28404 10.3452 6.28467 9.6799C6.28552 8.78846 6.64024 7.93382 7.27088 7.30377C7.90153 6.67373 8.75651 6.31982 9.64795 6.31982ZM16.1855 15.6089H21.7462V18.1714H21.823C22.5982 16.7044 24.488 15.1572 27.31 15.1572C33.1845 15.1444 34.2736 19.0106 34.2736 24.0235V34.2735H28.4727V25.1926C28.4727 23.0305 28.4343 20.247 25.4586 20.247C22.4829 20.247 21.9768 22.6045 21.9768 25.0517V34.2735H16.1855V15.6089Z" fill="white"/>
</g>
<defs>
<clipPath id="clip0_483_2500">
<rect width="41" height="41" fill="white"/>
</clipPath>
</defs>
</svg>
