<svg width="44" height="44" viewBox="0 0 44 44" fill="none" xmlns="http://www.w3.org/2000/svg">
<path fill-rule="evenodd" clip-rule="evenodd" d="M22.0001 38.8457L23.3222 37.356C24.8224 35.6379 26.1718 34.0078 27.3723 32.4573L28.3634 31.1499C32.5015 25.5745 34.5716 21.1493 34.5716 17.8787C34.5716 10.8973 28.9438 5.2381 22.0001 5.2381C15.0565 5.2381 9.42871 10.8973 9.42871 17.8787C9.42871 21.1493 11.4988 25.5745 15.6369 31.1499L16.6279 32.4573C18.3407 34.6519 20.1326 36.7813 22.0001 38.8457Z" stroke="#9D864D" stroke-width="2" stroke-linecap="round" stroke-linejoin="round"/>
<path d="M21.9998 23.0477C24.8927 23.0477 27.2379 20.7025 27.2379 17.8096C27.2379 14.9166 24.8927 12.5715 21.9998 12.5715C19.1069 12.5715 16.7617 14.9166 16.7617 17.8096C16.7617 20.7025 19.1069 23.0477 21.9998 23.0477Z" stroke="#9D864D" stroke-width="2" stroke-linecap="round" stroke-linejoin="round"/>
</svg>
