<svg width="58" height="58" viewBox="0 0 58 58" fill="none" xmlns="http://www.w3.org/2000/svg">
<g clip-path="url(#clip0_690_2051)">
<path d="M30.9817 10.7275C33.8445 10.7275 36.1734 8.42131 36.1734 5.58683C36.1734 2.75234 33.8444 0.446045 30.9817 0.446045C28.119 0.446045 25.7901 2.75223 25.7901 5.58683C25.7901 8.42142 28.1191 10.7275 30.9817 10.7275ZM30.9817 2.00707C32.9752 2.00707 34.5969 3.61291 34.5969 5.58683C34.5969 7.56074 32.9752 9.16647 30.9817 9.16647C28.9882 9.16647 27.3666 7.56063 27.3666 5.58683C27.3666 3.61302 28.9883 2.00707 30.9817 2.00707ZM13.9106 39.521C14.6509 39.521 15.372 39.1408 15.768 38.4617L18.985 32.9444C19.1471 32.8316 19.2969 32.6973 19.429 32.5412L20.7863 30.9359C21.112 30.5506 21.2428 30.0659 21.1544 29.5707C21.0659 29.0758 20.775 28.6648 20.3356 28.4137L17.244 26.6462L17.4486 26.2953C17.6651 25.924 17.7223 25.4904 17.6097 25.0741C17.5497 24.8521 17.4442 24.6507 17.303 24.4776C17.4677 24.2827 17.616 24.0655 17.7455 23.8257L21.4013 17.0564L23.2218 17.0393L21.4364 25.794C21.1332 27.2814 21.5777 29.0974 22.9167 30.0279L23.4841 35.6624C23.5666 36.4819 23.3965 37.1493 22.9483 37.7627L18.4239 43.9564C17.1594 45.6871 17.7383 47.399 18.8112 48.257C19.3333 48.6745 20.0119 48.9253 20.7271 48.9253C21.5637 48.9253 22.4505 48.5823 23.1955 47.7622L28.4319 41.9983C29.7635 40.5327 30.4382 38.7492 30.4375 36.6974L30.4358 32.6389L35.8526 34.4163L36.3213 41.0882C36.4404 42.7829 37.8345 43.6634 39.1589 43.6633H39.1838C40.526 43.6521 41.9328 42.7414 42.0244 41.0224L42.4154 33.6849C42.6077 30.0727 40.5005 29.1646 38.2696 28.2034C38.0175 28.0946 37.7582 27.983 37.4939 27.8642C37.4751 27.8557 37.4559 27.8479 37.4364 27.841L32.1715 25.9513L33.1908 21.1169L34.5094 22.6654C35.6747 24.0337 37.2446 24.7564 39.0508 24.7563H39.0681L44.1868 24.7428C45.4855 24.7395 46.5769 23.7321 46.6715 22.4495L46.6909 22.1857C46.7879 20.8712 45.8152 19.7124 44.4764 19.5475L39.7706 18.9677C39.1648 18.8932 38.6992 18.6118 38.3868 18.1313L36.1659 14.7161C34.872 12.7264 33.0298 11.4723 30.6905 10.9887L27.5814 10.3458C26.6041 10.1438 25.7267 10.1093 24.7366 10.2342L20.1122 10.8168C18.0528 11.0763 16.4332 12.2747 15.6688 14.1049L12.623 21.398C12.5853 21.4883 12.551 21.5786 12.5201 21.6687C11.8137 21.4567 11.0255 21.7434 10.6408 22.4032L10.4362 22.7541L7.34469 20.9866C6.90507 20.7353 6.40003 20.6915 5.92336 20.863C5.44602 21.0346 5.08714 21.3893 4.91316 21.8614L4.18775 23.8277C4.11726 24.0189 4.07503 24.2144 4.05735 24.4096L0.840168 29.9274C0.555047 30.4164 0.479713 30.9874 0.627904 31.5354C0.776095 32.0833 1.12979 32.5404 1.62369 32.8228L12.8444 39.2374C13.1807 39.4297 13.5482 39.521 13.9111 39.521H13.9106ZM28.8606 36.698C28.8613 38.3753 28.3376 39.7675 27.2596 40.9541L22.0231 46.718C21.2594 47.5586 20.3571 47.4868 19.8015 47.0424C19.3103 46.6496 18.9892 45.8453 19.7008 44.8711L24.2253 38.6774C24.8938 37.7622 25.1721 36.6955 25.0525 35.5073L24.5698 30.714L28.8587 32.1214L28.8606 36.698ZM37.061 18.9763C37.6303 19.8516 38.4999 20.3842 39.5757 20.5167L44.2815 21.0964C44.7865 21.1586 45.1541 21.5871 45.1184 22.0718L45.0989 22.3356C45.0634 22.8166 44.6695 23.1803 44.1824 23.1816L39.0637 23.195H39.0502C37.7049 23.195 36.5824 22.6782 35.7143 21.6588L33.5997 19.1756L34.4708 15.0434C34.5991 15.209 34.7228 15.3807 34.8401 15.5611L37.061 18.9763ZM17.1254 14.7012C17.6674 13.4033 18.8286 12.5518 20.3109 12.365L24.9354 11.7824C25.755 11.6794 26.4499 11.7065 27.2589 11.8736L30.368 12.5165C31.4157 12.7332 32.3404 13.1403 33.137 13.7306L31.9779 19.2285C31.9779 19.2285 31.9779 19.2285 31.9779 19.2286L30.4883 26.2946C30.4081 26.6748 30.6225 27.0556 30.9913 27.1879L36.8699 29.2979C37.1322 29.4155 37.3896 29.5264 37.6403 29.6345C39.7909 30.5612 40.9755 31.0716 40.8408 33.6024L40.4498 40.9399C40.4045 41.7902 39.7323 42.0974 39.1704 42.102C39.1661 42.102 39.1618 42.102 39.1575 42.102C38.6079 42.102 37.9522 41.8089 37.8938 40.9795L37.3885 33.7857C37.3663 33.4698 37.1536 33.1985 36.8501 33.099L24.2684 28.9705C23.1704 28.6102 22.7518 27.2294 22.9815 26.1027L24.9595 16.4038C25.0065 16.1731 24.946 15.9336 24.7945 15.7522C24.6446 15.5727 24.4218 15.4688 24.1869 15.4688C24.1844 15.4688 24.1818 15.4688 24.1794 15.4688L20.919 15.4995C20.6309 15.5022 20.3672 15.6603 20.2314 15.912L16.3553 23.0893C16.2474 23.2892 16.122 23.4585 15.9814 23.5971L13.9402 22.4303C13.9717 22.2891 14.0173 22.1436 14.0796 21.9945L17.1255 14.7012H17.1254ZM12.0057 23.1836C12.018 23.1625 12.0521 23.1533 12.0733 23.1655L16.0652 25.4476C16.0758 25.4536 16.0829 25.4638 16.0867 25.4776C16.0904 25.4915 16.0892 25.5039 16.0831 25.5144L15.8785 25.8654L11.8012 23.5345L12.0058 23.1836H12.0057ZM5.66819 24.3632L6.39372 22.3966C6.40825 22.357 6.42086 22.3446 6.46106 22.3301C6.50126 22.3156 6.51905 22.3172 6.5561 22.3384L19.5473 29.7652C19.5843 29.7862 19.5945 29.8007 19.6019 29.8423C19.6093 29.8841 19.6047 29.9012 19.5773 29.9338L18.2202 31.5389C17.9806 31.822 17.5371 31.885 17.1882 31.6857L13.8064 29.7523C13.8749 29.5444 13.882 29.3209 13.8233 29.1043C13.7436 28.8093 13.5528 28.5628 13.2862 28.4104L10.8714 27.03C10.6048 26.8775 10.2938 26.8371 9.99591 26.9162C9.77711 26.9743 9.58523 27.092 9.4376 27.2548L6.05579 25.3215C5.70682 25.122 5.54016 24.7101 5.66819 24.3632ZM12.1318 29.5531L12.0065 29.7681L10.324 28.8061L10.4493 28.5913L12.1318 29.5531ZM2.15013 31.1313C2.11083 30.9862 2.13031 30.8358 2.20497 30.7078L4.77376 26.3022C4.91913 26.4428 5.08376 26.5683 5.26743 26.6732L8.64924 28.6066C8.58066 28.8145 8.57368 29.038 8.63235 29.2547C8.71219 29.5497 8.90283 29.7961 9.16949 29.9485L11.5843 31.3291C11.7617 31.4306 11.9588 31.4824 12.1586 31.4824C12.2591 31.4824 12.3601 31.4692 12.4598 31.4429C12.6787 31.3848 12.8705 31.2671 13.0183 31.1043L16.4001 33.0376C16.5838 33.1427 16.7759 33.2212 16.9715 33.2755L14.4028 37.681C14.2474 37.9476 13.9019 38.0396 13.6322 37.8854L2.41149 31.4707C2.28233 31.3968 2.18943 31.2762 2.15024 31.1312L2.15013 31.1313ZM57.101 39.8494C57.101 40.2804 56.7481 40.6299 56.3128 40.6299H45.19V45.1871C45.19 45.6181 44.8371 45.9676 44.4017 45.9676H33.279V50.5246C33.279 50.9557 32.9261 51.3052 32.4907 51.3052H21.368V55.8622C21.368 56.2933 21.0151 56.6427 20.5797 56.6427H8.66861C8.23327 56.6427 7.88036 56.2933 7.88036 55.8622C7.88036 55.4312 8.23327 55.0817 8.66861 55.0817H19.7914V50.5246C19.7914 50.0936 20.1443 49.7441 20.5796 49.7441H31.7024V45.1871C31.7024 44.756 32.0553 44.4066 32.4906 44.4066H43.6134V39.8494C43.6134 39.4183 43.9663 39.0689 44.4016 39.0689H56.3126C56.748 39.0689 57.1009 39.4183 57.1009 39.8494H57.101Z" fill="#9D864D"/>
</g>
<defs>
<clipPath id="clip0_690_2051">
<rect width="57.6548" height="57.0888" fill="white"/>
</clipPath>
</defs>
</svg>
