<svg width="44" height="44" viewBox="0 0 44 44" fill="none" xmlns="http://www.w3.org/2000/svg">
<path d="M15.5104 29.4897C11.9068 25.879 9.13542 21.5247 7.39022 16.7313C6.43008 14.1106 7.30979 11.2319 9.28369 9.25795L10.5052 8.03808C10.8336 7.70901 11.2237 7.44794 11.6531 7.26982C12.0826 7.09169 12.5429 7 13.0078 7C13.4727 7 13.933 7.09169 14.3625 7.26982C14.7919 7.44794 15.182 7.70901 15.5104 8.03808L18.3707 10.8984C18.6998 11.2268 18.9608 11.6169 19.139 12.0463C19.3171 12.4757 19.4088 12.9361 19.4088 13.401C19.4088 13.8659 19.3171 14.3262 19.139 14.7556C18.9608 15.1851 18.6998 15.5751 18.3707 15.9035L17.6669 16.6073C17.3852 16.889 17.1618 17.2233 17.0093 17.5913C16.8568 17.9594 16.7784 18.3538 16.7784 18.7521C16.7784 19.1505 16.8568 19.5449 17.0093 19.9129C17.1618 20.2809 17.3852 20.6153 17.6669 20.897L24.1014 27.3331C24.383 27.6148 24.7174 27.8383 25.0854 27.9907C25.4534 28.1432 25.8479 28.2217 26.2462 28.2217C26.6445 28.2217 27.039 28.1432 27.407 27.9907C27.775 27.8383 28.1094 27.6148 28.391 27.3331L29.0965 26.6293C29.4249 26.3003 29.8149 26.0392 30.2444 25.8611C30.6738 25.6829 31.1341 25.5913 31.599 25.5913C32.0639 25.5913 32.5243 25.6829 32.9537 25.8611C33.3831 26.0392 33.7732 26.3003 34.1016 26.6293L36.9619 29.4897C37.291 29.8181 37.5521 30.2081 37.7302 30.6376C37.9083 31.067 38 31.5273 38 31.9922C38 32.4571 37.9083 32.9175 37.7302 33.3469C37.5521 33.7763 37.291 34.1664 36.9619 34.4948L35.7421 35.7147C33.7682 37.6902 30.8894 38.57 28.2687 37.6098C23.4753 35.8646 19.121 33.0933 15.5104 29.4897Z" stroke="#9D864D" stroke-width="2" stroke-linejoin="round"/>
</svg>
