<svg width="67" height="51" viewBox="0 0 67 51" fill="none" xmlns="http://www.w3.org/2000/svg">
<path fill-rule="evenodd" clip-rule="evenodd" d="M15.0289 30.0244C12.5314 29.4059 10.3128 27.9688 8.72733 25.9423C7.14182 23.9159 6.28067 21.4168 6.28125 18.8438V17.7969C6.28125 14.7427 7.4945 11.8137 9.6541 9.6541C11.8137 7.4945 14.7427 6.28125 17.7969 6.28125H18.8438C21.8311 6.27856 24.7023 7.43813 26.8499 9.51464C28.9976 11.5912 30.2531 14.4217 30.351 17.4074V17.42H30.3594V18.8438C30.3594 19.3937 30.3217 19.9325 30.2463 20.4601C30.1626 21.5545 30.0369 22.6293 29.8694 23.6845C29.4278 26.449 28.6414 29.1472 27.5286 31.7161C25.5335 36.3181 22.4217 40.3495 18.4753 43.4453L18.0649 43.7636C17.8914 43.8955 17.6798 43.9675 17.4619 43.9688C17.2817 43.9681 17.1047 43.9209 16.9481 43.8318C16.7915 43.7427 16.6605 43.6147 16.5679 43.4601C16.4752 43.3056 16.424 43.1297 16.4193 42.9496C16.4145 42.7695 16.4563 42.5912 16.5406 42.4319C17.5344 40.5419 18.4426 38.6081 19.2625 36.6364C20.0874 34.6516 20.9207 32.3945 21.5949 30.0286C20.6949 30.2512 19.7709 30.3623 18.8438 30.3594H17.7969C16.8393 30.3566 15.9167 30.2449 15.0289 30.0244ZM12.73 35.9078C9.05235 34.8156 5.82611 32.5642 3.53212 29.4891C1.23812 26.4141 -0.000799909 22.6802 3.87476e-07 18.8438V17.7969C3.87476e-07 13.0768 1.87502 8.55015 5.21258 5.21258C8.55015 1.87502 13.0768 3.73574e-07 17.7969 3.73574e-07H18.8438C24.924 3.73574e-07 30.2882 3.0485 33.5 7.69662C35.1366 5.3223 37.3257 3.38123 39.8788 2.04049C42.4319 0.699744 45.2725 -0.000507962 48.1562 3.73574e-07H49.2031C53.8614 -0.00095343 58.3344 1.82456 61.6618 5.08462C64.9892 8.34469 66.9057 12.7794 67 17.4368V18.8438C67 19.6115 66.9511 20.3694 66.8534 21.1176C65.9866 32.0888 61.1668 41.9127 52.2474 48.7509C50.9767 49.723 49.4212 50.2498 47.8213 50.25C42.2058 50.25 38.8349 44.2828 41.339 39.5132C41.8038 38.6297 42.4277 37.386 43.0894 35.912C39.8292 34.9412 36.9155 33.0564 34.6934 30.4808C32.4255 37.7527 27.9499 44.1381 21.8881 48.7509C20.6173 49.723 19.0618 50.2498 17.4619 50.25C11.8464 50.25 8.4755 44.2828 10.9796 39.5132C11.4444 38.6297 12.0684 37.386 12.73 35.912M45.3925 30.0244C46.2803 30.2449 47.2029 30.3566 48.1604 30.3594H49.2073C50.1342 30.3582 51.0577 30.2472 51.9585 30.0286C51.1953 32.6959 50.2438 35.3057 49.111 37.8382C48.4274 39.3939 47.6914 40.926 46.9042 42.4319C46.8199 42.5912 46.7781 42.7695 46.7828 42.9496C46.7876 43.1297 46.8388 43.3056 46.9314 43.4601C47.0241 43.6147 47.155 43.7427 47.3117 43.8318C47.4683 43.9209 47.6452 43.9681 47.8254 43.9688C48.0434 43.9675 48.255 43.8955 48.4284 43.7636L48.8388 43.4453C50.1006 42.4459 51.262 41.3739 52.3228 40.2293C54.7945 37.5725 56.7664 34.4914 58.1434 31.1341C59.1239 28.7397 59.8237 26.2399 60.2288 23.6845C60.4021 22.6157 60.5292 21.5399 60.6099 20.4601C60.6852 19.9297 60.7229 19.3909 60.7229 18.8438V17.4242H60.7188V17.4074C60.6208 14.4203 59.3641 11.5885 57.2147 9.51173C55.0652 7.43499 52.1919 6.27638 49.2031 6.28125H48.1521C45.0979 6.28125 42.1689 7.4945 40.0093 9.6541C37.8497 11.8137 36.6364 14.7427 36.6364 17.7969V18.8438C36.6364 24.2456 40.3633 28.7849 45.3841 30.0244" fill="#CFBB9A"/>
</svg>
