<svg width="61" height="60" viewBox="0 0 61 60" fill="none" xmlns="http://www.w3.org/2000/svg">
<path d="M55.6034 33.4095H42.8465C42.7227 33.4095 42.6002 33.4336 42.4858 33.4805C42.3715 33.5273 42.2676 33.5961 42.18 33.6827C42.0925 33.7694 42.0231 33.8723 41.9757 33.9855C41.9284 34.0987 41.904 34.2201 41.9041 34.3427V37.1905H31.6795C31.5557 37.1905 31.4332 37.2146 31.3188 37.2615C31.2044 37.3084 31.1005 37.3771 31.013 37.4638C30.9255 37.5504 30.8561 37.6533 30.8087 37.7666C30.7614 37.8798 30.737 38.0011 30.7371 38.1237V42.9263H29.6196L30.6395 33.4705C30.6826 33.0541 30.588 32.635 30.37 32.2763C30.152 31.9176 29.8224 31.6385 29.4306 31.4811L22.6044 28.7536V26.5989C23.2873 27.2727 24.1914 27.6821 25.1529 27.7529H31.4305C32.2166 27.744 32.9674 27.4286 33.5201 26.8751C34.0728 26.3215 34.3828 25.5745 34.3828 24.7961C34.3828 24.0177 34.0728 23.2707 33.5201 22.7172C32.9674 22.1636 32.2165 21.8482 31.4304 21.8394H26.538C26.2553 21.8402 25.9835 21.7312 25.781 21.5359C24.905 20.7026 21.8884 17.784 21.0573 16.9857C20.5304 16.4761 19.8226 16.1914 19.0859 16.1929H13.302C12.9124 16.1919 12.5265 16.2672 12.1664 16.4145C11.8064 16.5619 11.4793 16.7783 11.2041 17.0513L4.66597 23.5089C4.11167 24.0524 3.79773 24.7915 3.79302 25.5639C3.78381 26.7369 3.76909 28.9231 3.76954 30.5115C3.7685 30.8897 3.84362 31.2643 3.99051 31.6134C4.13739 31.9625 4.35309 32.2791 4.625 32.5446C5.0373 32.9389 5.55674 33.2055 6.11972 33.3119C6.68271 33.4183 7.26481 33.3598 7.79476 33.1437C8.32471 32.9275 8.77951 32.5631 9.10347 32.0949C9.42743 31.6267 9.60651 31.0752 9.61876 30.5078L9.64962 26.6421L10.9045 25.7754V32.7834C10.7753 33.6557 9.44365 42.6707 8.88781 46.8149H6.69674C6.57297 46.8148 6.45041 46.839 6.33605 46.8858C6.22169 46.9327 6.11779 47.0015 6.03027 47.0881C5.94275 47.1748 5.87333 47.2777 5.82598 47.3909C5.77863 47.5041 5.75428 47.6255 5.75431 47.7481V53.9914C5.75913 54.2358 5.86054 54.4685 6.03676 54.6396C6.21299 54.8107 6.44996 54.9066 6.69677 54.9066C6.94359 54.9066 7.18056 54.8107 7.35677 54.6396C7.53298 54.4685 7.63437 54.2357 7.63918 53.9914V48.6812H14.1515C14.3271 48.7515 14.5235 48.7515 14.6992 48.6812H20.4067C20.5305 48.6813 20.653 48.6571 20.7674 48.6103C20.8817 48.5634 20.9856 48.4946 21.0732 48.408C21.1607 48.3213 21.2301 48.2184 21.2774 48.1052C21.3248 47.992 21.3491 47.8706 21.3491 47.7481V44.7927H31.6795C31.8033 44.7927 31.9258 44.7686 32.0402 44.7217C32.1545 44.6748 32.2584 44.6061 32.346 44.5194C32.4335 44.4327 32.5029 44.3299 32.5503 44.2166C32.5976 44.1034 32.622 43.982 32.6219 43.8595V39.0569H42.8465C42.9703 39.0569 43.0928 39.0328 43.2072 38.9859C43.3216 38.939 43.4255 38.8703 43.513 38.7836C43.6005 38.697 43.6699 38.5941 43.7173 38.4809C43.7646 38.3676 43.789 38.2463 43.7889 38.1237V35.2759H54.661V42.3877C54.661 42.6352 54.7603 42.8726 54.937 43.0476C55.1138 43.2226 55.3535 43.3209 55.6034 43.3209C55.8534 43.3209 56.0931 43.2226 56.2698 43.0476C56.4466 42.8726 56.5459 42.6352 56.5459 42.3877V34.3427C56.5459 34.2201 56.5215 34.0987 56.4742 33.9855C56.4268 33.8723 56.3574 33.7694 56.2699 33.6827C56.1824 33.5961 56.0785 33.5273 55.9641 33.4805C55.8498 33.4336 55.7272 33.4095 55.6034 33.4095ZM26.538 23.7058H31.4305C31.7198 23.71 31.9958 23.8268 32.1989 24.0308C32.4019 24.2348 32.5157 24.5098 32.5157 24.7962C32.5157 25.0827 32.4019 25.3576 32.1989 25.5617C31.9958 25.7657 31.7198 25.8824 31.4305 25.8866H25.1529C24.6374 25.9832 23.1211 24.5812 22.6044 24.2706V21.0815C23.6342 21.985 24.9767 23.8366 26.538 23.7058ZM12.7793 32.9875C12.7861 32.9426 12.7895 32.8972 12.7894 32.8518V23.9865C12.7872 23.8168 12.7386 23.6509 12.6488 23.5064C12.559 23.3618 12.4314 23.244 12.2794 23.1655C12.1275 23.087 11.9569 23.0508 11.7858 23.0605C11.6147 23.0703 11.4495 23.1258 11.3076 23.2211L8.57145 25.111C8.31299 25.2895 8.10187 25.527 7.95605 25.8036C7.81024 26.0802 7.73404 26.3875 7.73394 26.6995V30.5078C7.72377 30.7076 7.65606 30.9003 7.5388 31.0633C7.42155 31.2262 7.25965 31.3525 7.07224 31.4272C6.88482 31.502 6.67972 31.522 6.48116 31.4851C6.28259 31.4481 6.09886 31.3556 5.95167 31.2186C5.85713 31.1262 5.78214 31.0161 5.7311 30.8947C5.68005 30.7733 5.65398 30.643 5.65441 30.5115C5.65395 28.9267 5.66867 26.7478 5.67788 25.5786C5.68015 25.2973 5.7948 25.0283 5.99678 24.8304L12.5349 18.3729C12.6355 18.273 12.7551 18.1939 12.8868 18.1401C13.0185 18.0863 13.1596 18.0589 13.3021 18.0594H19.086C19.6424 17.9873 20.3438 18.9739 20.7196 19.2641V29.3833C20.7197 29.5694 20.7758 29.7512 20.881 29.9055C20.9861 30.0598 21.1353 30.1794 21.3096 30.2491L28.7657 33.2719L27.7246 42.9263H25.1458C25.3584 41.0595 25.7657 37.8367 25.9407 36.5198C26.0097 36.018 25.8762 35.5095 25.5691 35.1045C25.262 34.6996 24.8061 34.4308 24.3002 34.3563L19.7772 33.661C19.2285 33.5801 18.6691 33.6078 18.1313 33.7423C17.5935 33.8769 17.088 34.1157 16.644 34.4449C16.2001 34.7742 15.8264 35.1873 15.5447 35.6605C15.263 36.1337 15.0789 36.6574 15.0029 37.2015L13.8363 45.673C13.8011 45.9301 13.6979 46.4389 13.6258 46.8149H10.7896C11.3871 42.3923 12.7645 33.0889 12.7793 32.9875ZM20.4066 42.9263C20.2829 42.9263 20.1603 42.9504 20.046 42.9973C19.9316 43.0442 19.8277 43.1129 19.7402 43.1996C19.6527 43.2862 19.5832 43.3891 19.5359 43.5023C19.4885 43.6156 19.4642 43.7369 19.4642 43.8595V46.8149H15.545C15.6203 46.7524 16.8086 37.8287 16.8716 37.4448C16.9131 37.1466 17.014 36.8595 17.1683 36.6002C17.3227 36.3409 17.5275 36.1145 17.7709 35.9341C18.0143 35.7537 18.2914 35.623 18.5861 35.5494C18.8809 35.4758 19.1875 35.4609 19.4882 35.5055L24.0107 36.2008C24.0289 36.2029 24.0455 36.212 24.0569 36.2262C24.0683 36.2404 24.0735 36.2584 24.0715 36.2764C23.8896 37.6476 23.4571 41.0744 23.2495 42.9263L20.4066 42.9263Z" fill="#9D864D"/>
<path d="M16.0825 15.3554C21.7668 15.1637 21.7653 5.93358 16.0824 5.74292C10.3975 5.93451 10.3991 15.1649 16.0825 15.3554ZM16.0825 7.60929C19.2685 7.69907 19.2677 13.4 16.0824 13.4891C12.8959 13.3991 12.8967 7.69857 16.0825 7.60929Z" fill="#9D864D"/>
<path d="M43.7183 16.9356H45.1112V31.1913C45.1112 31.3138 45.1356 31.4352 45.1829 31.5484C45.2303 31.6617 45.2997 31.7645 45.3872 31.8512C45.4747 31.9379 45.5786 32.0066 45.693 32.0535C45.8073 32.1004 45.9299 32.1245 46.0537 32.1244H51.8643C51.9881 32.1245 52.1106 32.1004 52.225 32.0535C52.3393 32.0066 52.4432 31.9379 52.5308 31.8512C52.6183 31.7645 52.6877 31.6617 52.735 31.5484C52.7824 31.4352 52.8068 31.3138 52.8067 31.1913V16.9356H54.1996C54.4773 16.9334 54.7495 16.8593 54.9893 16.7207C55.2291 16.582 55.4282 16.3837 55.5666 16.1454C55.7051 15.9071 55.7782 15.6371 55.7787 15.3621C55.7793 15.0872 55.7071 14.8169 55.5695 14.578L50.3301 5.59072C50.1887 5.35437 49.9874 5.15867 49.7461 5.02297C49.5049 4.88728 49.232 4.81629 48.9546 4.81702C48.6771 4.81776 48.4047 4.8902 48.1642 5.02717C47.9237 5.16414 47.7235 5.36091 47.5833 5.598L42.3479 14.579C42.212 14.818 42.1413 15.0879 42.1426 15.3623C42.1439 15.6366 42.2173 15.9059 42.3556 16.1436C42.4938 16.3813 42.6921 16.5794 42.9311 16.7182C43.17 16.8571 43.4413 16.932 43.7183 16.9356ZM48.9588 6.97135L53.6792 15.0693H51.8643C51.7405 15.0692 51.618 15.0933 51.5036 15.1402C51.3893 15.1871 51.2853 15.2559 51.1978 15.3425C51.1103 15.4292 51.0409 15.5321 50.9935 15.6453C50.9462 15.7585 50.9218 15.8799 50.9219 16.0024V30.2581H46.9961V16.0024C46.9962 15.8799 46.9718 15.7585 46.9245 15.6453C46.8771 15.5321 46.8077 15.4292 46.7202 15.3425C46.6327 15.2559 46.5287 15.1871 46.4144 15.1402C46.3 15.0933 46.1775 15.0692 46.0537 15.0693H44.2388L48.9588 6.97135Z" fill="#9D864D"/>
</svg>
