<svg width="57" height="50" viewBox="0 0 57 50" fill="none" xmlns="http://www.w3.org/2000/svg">
<path d="M20.8477 9.59823C20.7379 9.39539 20.7723 9.15584 20.9364 8.98198L27.8716 1.65942C27.9969 1.52613 28.1854 1.44885 28.3839 1.44885C28.5823 1.44885 28.7708 1.52613 28.8972 1.65942L35.8324 8.98198C35.9965 9.15488 36.0309 9.39539 35.9211 9.59823C35.8113 9.80107 35.5774 9.9305 35.3191 9.9305H32.7856V23.0456C32.7856 23.3653 32.4873 23.6252 32.1203 23.6252C31.7533 23.6252 31.4551 23.3653 31.4551 23.0456V9.35096C31.4551 9.03124 31.7533 8.77141 32.1203 8.77141H33.9076L28.3839 2.93925L22.8601 8.77141H24.6474C25.0144 8.77141 25.3126 9.03124 25.3126 9.35096V23.0456C25.3126 23.3653 25.0144 23.6252 24.6474 23.6252C24.2804 23.6252 23.9821 23.3653 23.9821 23.0456V9.9305H21.4486C21.1914 9.9305 20.9575 9.80107 20.8477 9.59823ZM35.594 18.3851C35.7038 18.5879 35.9377 18.7174 36.1961 18.7174H38.7296V24.4858C38.7296 24.8055 39.0278 25.0653 39.3948 25.0653C39.7618 25.0653 40.0601 24.8055 40.0601 24.4858V18.1378C40.0601 17.8181 39.7618 17.5583 39.3948 17.5583H37.6075L43.1313 11.7261L48.6551 17.5583H46.8666C46.4997 17.5583 46.2014 17.8181 46.2014 18.1378V24.4858C46.2014 24.8055 46.4997 25.0653 46.8666 25.0653C47.2336 25.0653 47.5319 24.8055 47.5319 24.4858V18.7174H50.0654C50.3226 18.7174 50.5577 18.5879 50.6674 18.3851C50.7772 18.1823 50.7428 17.9418 50.5787 17.7689L43.6435 10.4463C43.5171 10.313 43.3286 10.2357 43.1302 10.2357C42.9317 10.2357 42.7432 10.313 42.6168 10.4463L35.6816 17.7689C35.5186 17.9418 35.4843 18.1823 35.594 18.3851ZM34.1493 29.1704C34.1493 31.9397 31.5626 34.1932 28.3839 34.1932C25.2051 34.1932 22.6184 31.9397 22.6184 29.1704C22.6184 26.4012 25.2051 24.1477 28.3839 24.1477C31.5626 24.1477 34.1493 26.4002 34.1493 29.1704ZM32.8188 29.1704C32.8188 27.0396 30.8297 25.3068 28.3839 25.3068C25.938 25.3068 23.9489 27.0396 23.9489 29.1704C23.9489 31.3012 25.938 33.0341 28.3839 33.0341C30.8297 33.0341 32.8188 31.3003 32.8188 29.1704ZM53.1222 42.3744V47.4261C53.1222 47.7458 52.8239 48.0057 52.4569 48.0057H38.7218H18.0459H4.31076C3.94376 48.0057 3.64551 47.7458 3.64551 47.4261V42.3744C3.64551 39.269 6.54488 36.7432 10.1095 36.7432H17.1644C18.0548 36.7432 18.9407 36.9083 19.7545 37.2194C21.0096 36.2428 22.6638 35.6469 24.4755 35.6469H32.2955C34.1072 35.6469 35.7614 36.2419 37.0165 37.2194C37.8304 36.9083 38.7151 36.7432 39.6055 36.7432H46.6604C50.2228 36.7432 53.1222 39.269 53.1222 42.3744ZM4.976 46.8466H8.00953V42.1136C8.00953 41.7939 8.30779 41.5341 8.67478 41.5341C9.04178 41.5341 9.34003 41.7939 9.34003 42.1136V46.8466H17.3807V41.8258C17.3807 40.4436 17.9051 39.1657 18.7888 38.135C18.2665 37.9824 17.7166 37.9013 17.1644 37.9013H10.1095C7.27887 37.9013 4.976 39.9075 4.976 42.3735V46.8466ZM38.0566 41.8258C38.0566 39.0575 35.471 36.805 32.2933 36.805H24.4733C21.2956 36.805 18.71 39.0575 18.71 41.8258V46.8466H22.217V41.5379C22.217 41.2182 22.5153 40.9584 22.8823 40.9584C23.2492 40.9584 23.5475 41.2182 23.5475 41.5379V46.8466H33.218V41.5379C33.218 41.2182 33.5162 40.9584 33.8832 40.9584C34.2502 40.9584 34.5485 41.2182 34.5485 41.5379V46.8466H38.0554V41.8258H38.0566ZM51.7917 42.3744C51.7917 39.9085 49.4888 37.9023 46.6582 37.9023H39.6044C39.0522 37.9023 38.5023 37.9834 37.98 38.136C38.8637 39.1666 39.3882 40.4445 39.3882 41.8268V46.8466H47.4288V42.1136C47.4288 41.7939 47.727 41.5341 48.094 41.5341C48.461 41.5341 48.7593 41.7939 48.7593 42.1136V46.8466H51.7928V42.3744H51.7917ZM48.3978 30.9564C48.3978 33.4861 46.0351 35.5445 43.1313 35.5445C40.2275 35.5445 37.8647 33.4861 37.8647 30.9564C37.8647 28.4267 40.2275 26.3683 43.1313 26.3683C46.0351 26.3683 48.3978 28.4267 48.3978 30.9564ZM47.0673 30.9564C47.0673 29.0661 45.3022 27.5274 43.1313 27.5274C40.9615 27.5274 39.1952 29.0652 39.1952 30.9564C39.1952 32.8467 40.9604 34.3854 43.1313 34.3854C45.3011 34.3854 47.0673 32.8467 47.0673 30.9564ZM18.903 30.9564C18.903 33.4861 16.5402 35.5445 13.6364 35.5445C10.7326 35.5445 8.36987 33.4861 8.36987 30.9564C8.36987 28.4267 10.7326 26.3683 13.6364 26.3683C16.5402 26.3683 18.903 28.4267 18.903 30.9564ZM17.5725 30.9564C17.5725 29.0661 15.8073 27.5274 13.6364 27.5274C11.4666 27.5274 9.70037 29.0652 9.70037 30.9564C9.70037 32.8467 11.4655 34.3854 13.6364 34.3854C15.8062 34.3854 17.5725 32.8467 17.5725 30.9564ZM6.70121 18.7174H9.23581V24.4858C9.23581 24.8055 9.53406 25.0653 9.90105 25.0653C10.268 25.0653 10.5663 24.8055 10.5663 24.4858V18.1378C10.5663 17.8181 10.268 17.5583 9.90105 17.5583H8.11265L13.6364 11.7261L19.1602 17.5583H17.3729C17.0059 17.5583 16.7076 17.8181 16.7076 18.1378V24.4858C16.7076 24.8055 17.0059 25.0653 17.3729 25.0653C17.7399 25.0653 18.0381 24.8055 18.0381 24.4858V18.7174H20.5716C20.8289 18.7174 21.0639 18.5879 21.1737 18.3851C21.2834 18.1823 21.2491 17.9418 21.085 17.7689L14.1498 10.4463C14.0234 10.313 13.8349 10.2357 13.6364 10.2357C13.438 10.2357 13.2495 10.313 13.1231 10.4463L6.18786 17.7689C6.02377 17.9418 5.9894 18.1823 6.09916 18.3851C6.21004 18.5879 6.44398 18.7174 6.70121 18.7174Z" fill="#9D864D"/>
</svg>
