<svg width="29" height="29" viewBox="0 0 29 29" fill="none" xmlns="http://www.w3.org/2000/svg">
<path d="M26.6101 6.01803C26.0101 5.22123 25.0464 4.72565 23.7444 4.54205L11.0711 2.76608C9.76914 2.58248 8.71203 2.79247 7.91763 3.39127C7.12083 3.99127 6.62405 4.95485 6.44165 6.25446L6.26514 7.49781H5.60039C2.95679 7.49781 1.5 8.9534 1.5 11.5982V21.9998C1.5 24.6446 2.95679 26.1002 5.60039 26.1002H18.402C20.6928 26.1002 22.0885 25.0033 22.4221 22.9921C24.2929 22.8409 25.4844 21.6264 25.7952 19.4676L27.2339 9.17184C27.4199 7.87464 27.2089 6.81363 26.6101 6.01803ZM5.60039 9.29781H18.402C20.0364 9.29781 20.7037 9.9638 20.7037 11.5982V17.6943L16.5959 13.5866C15.8255 12.8174 14.5752 12.8186 13.8084 13.5866L8.80078 18.5943L8.06162 17.8537C7.29122 17.0833 6.04082 17.0857 5.27402 17.8537L3.3 19.8277V11.5982C3.3 9.9638 3.96719 9.29781 5.60039 9.29781ZM18.402 24.3002H5.60039C4.09319 24.3002 3.41639 23.7229 3.31919 22.3525L6.54595 19.1257C6.61075 19.0621 6.72118 19.0609 6.78838 19.1257L7.79165 20.1289C8.34845 20.6869 9.25683 20.6845 9.81123 20.1289L15.0816 14.8587C15.1488 14.7939 15.2592 14.7951 15.324 14.8587L20.7037 20.2381V21.9998C20.7037 23.6342 20.0364 24.3002 18.402 24.3002ZM25.452 8.92106L24.0132 19.2157C23.8392 20.4229 23.3833 21.0312 22.5037 21.1812V11.5982C22.5037 8.9534 21.0468 7.49781 18.402 7.49781H8.08198L8.22246 6.50787C8.33766 5.69667 8.598 5.13127 9 4.82887C9.3984 4.52767 10.0116 4.4318 10.8192 4.5482L23.4936 6.32418C24.3048 6.43938 24.8687 6.69975 25.1711 7.10055C25.4735 7.50015 25.5672 8.11226 25.452 8.92106ZM6.62036 13.8002C6.62036 13.1378 7.15198 12.6002 7.81318 12.6002H7.82285C8.48405 12.6002 9.02036 13.1378 9.02036 13.8002C9.02036 14.4626 8.48405 15.0002 7.82285 15.0002C7.16285 15.0002 6.62036 14.4626 6.62036 13.8002Z" fill="white"/>
</svg>
