<svg width="25" height="25" viewBox="0 0 25 25" fill="none" xmlns="http://www.w3.org/2000/svg">
<path d="M5.46875 3.125H14.6484C15.1875 3.125 15.625 3.5625 15.625 4.10156V10.9375C15.625 11.1447 15.7073 11.3434 15.8538 11.4899C16.0003 11.6364 16.199 11.7188 16.4062 11.7188H19.3359C19.875 11.7188 20.3125 12.1562 20.3125 12.6953V21.875H17.9688V19.1406C17.9688 18.8298 17.8453 18.5318 17.6255 18.312C17.4057 18.0922 17.1077 17.9688 16.7969 17.9688H8.20312C7.89232 17.9688 7.59425 18.0922 7.37448 18.312C7.15472 18.5318 7.03125 18.8298 7.03125 19.1406V21.875H4.6875V3.90625C4.6875 3.69905 4.76981 3.50034 4.91632 3.35382C5.06284 3.20731 5.26155 3.125 5.46875 3.125ZM16.4062 21.875H13.2812V19.5312H16.4062V21.875ZM11.7188 21.875H8.59375V19.5312H11.7188V21.875ZM21.0938 23.4375C21.301 23.4375 21.4997 23.3552 21.6462 23.2087C21.7927 23.0622 21.875 22.8635 21.875 22.6562V12.6953C21.875 12.3619 21.8093 12.0317 21.6817 11.7237C21.5541 11.4156 21.3671 11.1357 21.1313 10.8999C20.8956 10.6642 20.6156 10.4771 20.3076 10.3495C19.9995 10.2219 19.6694 10.1562 19.3359 10.1562H17.1875V4.10156C17.1875 3.76813 17.1218 3.43796 16.9942 3.12991C16.8666 2.82185 16.6796 2.54195 16.4438 2.30617C16.2081 2.0704 15.9281 1.88337 15.6201 1.75577C15.312 1.62817 14.9819 1.5625 14.6484 1.5625H5.46875C4.84715 1.5625 4.25101 1.80943 3.81147 2.24897C3.37193 2.68851 3.125 3.28465 3.125 3.90625V22.6562C3.125 22.8635 3.20731 23.0622 3.35382 23.2087C3.50034 23.3552 3.69905 23.4375 3.90625 23.4375H21.0938ZM8.20312 7.8125C8.51393 7.8125 8.812 7.68903 9.03177 7.46927C9.25153 7.2495 9.375 6.95143 9.375 6.64062C9.375 6.32982 9.25153 6.03175 9.03177 5.81198C8.812 5.59222 8.51393 5.46875 8.20312 5.46875C7.89232 5.46875 7.59425 5.59222 7.37448 5.81198C7.15472 6.03175 7.03125 6.32982 7.03125 6.64062C7.03125 6.95143 7.15472 7.2495 7.37448 7.46927C7.59425 7.68903 7.89232 7.8125 8.20312 7.8125ZM8.20312 11.7188C8.51393 11.7188 8.812 11.5953 9.03177 11.3755C9.25153 11.1557 9.375 10.8577 9.375 10.5469C9.375 10.2361 9.25153 9.938 9.03177 9.71823C8.812 9.49847 8.51393 9.375 8.20312 9.375C7.89232 9.375 7.59425 9.49847 7.37448 9.71823C7.15472 9.938 7.03125 10.2361 7.03125 10.5469C7.03125 10.8577 7.15472 11.1557 7.37448 11.3755C7.59425 11.5953 7.89232 11.7188 8.20312 11.7188ZM9.375 14.4531C9.375 14.7639 9.25153 15.062 9.03177 15.2818C8.812 15.5015 8.51393 15.625 8.20312 15.625C7.89232 15.625 7.59425 15.5015 7.37448 15.2818C7.15472 15.062 7.03125 14.7639 7.03125 14.4531C7.03125 14.1423 7.15472 13.8443 7.37448 13.6245C7.59425 13.4047 7.89232 13.2812 8.20312 13.2812C8.51393 13.2812 8.812 13.4047 9.03177 13.6245C9.25153 13.8443 9.375 14.1423 9.375 14.4531ZM12.1094 7.8125C12.4202 7.8125 12.7182 7.68903 12.938 7.46927C13.1578 7.2495 13.2812 6.95143 13.2812 6.64062C13.2812 6.32982 13.1578 6.03175 12.938 5.81198C12.7182 5.59222 12.4202 5.46875 12.1094 5.46875C11.7986 5.46875 11.5005 5.59222 11.2807 5.81198C11.061 6.03175 10.9375 6.32982 10.9375 6.64062C10.9375 6.95143 11.061 7.2495 11.2807 7.46927C11.5005 7.68903 11.7986 7.8125 12.1094 7.8125ZM13.2812 10.5469C13.2812 10.8577 13.1578 11.1557 12.938 11.3755C12.7182 11.5953 12.4202 11.7188 12.1094 11.7188C11.7986 11.7188 11.5005 11.5953 11.2807 11.3755C11.061 11.1557 10.9375 10.8577 10.9375 10.5469C10.9375 10.2361 11.061 9.938 11.2807 9.71823C11.5005 9.49847 11.7986 9.375 12.1094 9.375C12.4202 9.375 12.7182 9.49847 12.938 9.71823C13.1578 9.938 13.2812 10.2361 13.2812 10.5469ZM12.1094 15.625C12.4202 15.625 12.7182 15.5015 12.938 15.2818C13.1578 15.062 13.2812 14.7639 13.2812 14.4531C13.2812 14.1423 13.1578 13.8443 12.938 13.6245C12.7182 13.4047 12.4202 13.2812 12.1094 13.2812C11.7986 13.2812 11.5005 13.4047 11.2807 13.6245C11.061 13.8443 10.9375 14.1423 10.9375 14.4531C10.9375 14.7639 11.061 15.062 11.2807 15.2818C11.5005 15.5015 11.7986 15.625 12.1094 15.625ZM17.1875 14.4531C17.1875 14.7639 17.064 15.062 16.8443 15.2818C16.6245 15.5015 16.3264 15.625 16.0156 15.625C15.7048 15.625 15.4068 15.5015 15.187 15.2818C14.9672 15.062 14.8438 14.7639 14.8438 14.4531C14.8438 14.1423 14.9672 13.8443 15.187 13.6245C15.4068 13.4047 15.7048 13.2812 16.0156 13.2812C16.3264 13.2812 16.6245 13.4047 16.8443 13.6245C17.064 13.8443 17.1875 14.1423 17.1875 14.4531Z" fill="white"/>
</svg>
