<svg width="25" height="25" viewBox="0 0 25 25" fill="none" xmlns="http://www.w3.org/2000/svg">
<path fill-rule="evenodd" clip-rule="evenodd" d="M12.7573 21.8427C13.9553 20.7557 15.0641 19.5741 16.0729 18.3094C18.1979 15.6396 19.4906 13.0073 19.5781 10.6667C19.6127 9.71545 19.4552 8.76698 19.1151 7.87794C18.775 6.9889 18.2591 6.17754 17.5984 5.49232C16.9377 4.8071 16.1456 4.26209 15.2695 3.88983C14.3934 3.51758 13.4513 3.32572 12.4994 3.32572C11.5476 3.32572 10.6054 3.51758 9.72935 3.88983C8.85328 4.26209 8.06122 4.8071 7.40049 5.49232C6.73976 6.17754 6.22391 6.9889 5.88377 7.87794C5.54363 8.76698 5.38617 9.71545 5.42079 10.6667C5.50933 13.0073 6.80308 15.6396 8.92704 18.3094C9.93586 19.5741 11.0446 20.7557 12.2427 21.8427C12.3579 21.9469 12.4437 22.0226 12.5 22.0698L12.7573 21.8427ZM11.7312 23.0563C11.7312 23.0563 4.16663 16.6855 4.16663 10.4167C4.16663 8.20657 5.0446 6.08695 6.6074 4.52415C8.17021 2.96135 10.2898 2.08337 12.5 2.08337C14.7101 2.08337 16.8297 2.96135 18.3925 4.52415C19.9553 6.08695 20.8333 8.20657 20.8333 10.4167C20.8333 16.6855 13.2687 23.0563 13.2687 23.0563C12.8479 23.4438 12.1552 23.4396 11.7312 23.0563ZM12.5 13.3334C13.2735 13.3334 14.0154 13.0261 14.5624 12.4791C15.1093 11.9321 15.4166 11.1903 15.4166 10.4167C15.4166 9.64316 15.1093 8.90129 14.5624 8.35431C14.0154 7.80733 13.2735 7.50004 12.5 7.50004C11.7264 7.50004 10.9845 7.80733 10.4376 8.35431C9.89058 8.90129 9.58329 9.64316 9.58329 10.4167C9.58329 11.1903 9.89058 11.9321 10.4376 12.4791C10.9845 13.0261 11.7264 13.3334 12.5 13.3334ZM12.5 14.5834C11.3949 14.5834 10.3351 14.1444 9.55368 13.363C8.77228 12.5816 8.33329 11.5218 8.33329 10.4167C8.33329 9.31164 8.77228 8.25183 9.55368 7.47043C10.3351 6.68903 11.3949 6.25004 12.5 6.25004C13.605 6.25004 14.6648 6.68903 15.4462 7.47043C16.2276 8.25183 16.6666 9.31164 16.6666 10.4167C16.6666 11.5218 16.2276 12.5816 15.4462 13.363C14.6648 14.1444 13.605 14.5834 12.5 14.5834Z" fill="#666666"/>
</svg>
