<svg width="25" height="25" viewBox="0 0 25 25" fill="none" xmlns="http://www.w3.org/2000/svg">
<path d="M19.3183 5.09831C19.6599 5.16831 19.9183 5.47165 19.9183 5.83331V12.5L19.9016 12.6516C19.8672 12.8212 19.7752 12.9736 19.6412 13.0831C19.5073 13.1926 19.3396 13.2524 19.1666 13.2524C18.9936 13.2524 18.8259 13.1926 18.6919 13.0831C18.558 12.9736 18.466 12.8212 18.4316 12.6516L18.4166 12.5016V7.64165L7.64492 18.4166L12.4999 18.4183L12.6516 18.4333C12.8324 18.4721 12.9925 18.5762 13.1012 18.7258C13.2098 18.8754 13.2594 19.0599 13.2404 19.2438C13.2214 19.4277 13.1351 19.5981 12.9982 19.7223C12.8612 19.8465 12.6831 19.9157 12.4983 19.9166H5.83325C5.63434 19.9166 5.44357 19.8376 5.30292 19.697C5.16227 19.5563 5.08325 19.3656 5.08325 19.1666V12.5L5.09992 12.35C5.13435 12.1804 5.22633 12.028 5.36028 11.9185C5.49423 11.809 5.66192 11.7492 5.83492 11.7492C6.00792 11.7492 6.17561 11.809 6.30956 11.9185C6.44351 12.028 6.53549 12.1804 6.56992 12.35L6.58325 12.5V17.3566L17.3566 6.58331H12.4999C12.301 6.58331 12.1102 6.5043 11.9696 6.36364C11.8289 6.22299 11.7499 6.03223 11.7499 5.83331C11.7499 5.6344 11.8289 5.44364 11.9696 5.30298C12.1102 5.16233 12.301 5.08331 12.4999 5.08331H19.1666L19.3183 5.09831Z" fill="white"/>
</svg>
