<svg width="25" height="25" viewBox="0 0 25 25" fill="none" xmlns="http://www.w3.org/2000/svg">
<path d="M19.3184 5.09837C19.66 5.16837 19.9184 5.47171 19.9184 5.83337V12.5L19.9017 12.6517C19.8673 12.8213 19.7753 12.9737 19.6413 13.0832C19.5074 13.1927 19.3397 13.2525 19.1667 13.2525C18.9937 13.2525 18.826 13.1927 18.6921 13.0832C18.5581 12.9737 18.4661 12.8213 18.4317 12.6517L18.4167 12.5017V7.64171L7.64504 18.4167L12.5 18.4184L12.6517 18.4334C12.8325 18.4721 12.9926 18.5763 13.1013 18.7259C13.21 18.8755 13.2596 19.0599 13.2405 19.2438C13.2215 19.4278 13.1353 19.5982 12.9983 19.7224C12.8613 19.8465 12.6833 19.9158 12.4984 19.9167H5.83337C5.63446 19.9167 5.4437 19.8377 5.30304 19.697C5.16239 19.5564 5.08337 19.3656 5.08337 19.1667V12.5L5.10004 12.35C5.13447 12.1805 5.22645 12.0281 5.3604 11.9186C5.49435 11.8091 5.66204 11.7493 5.83504 11.7493C6.00804 11.7493 6.17573 11.8091 6.30968 11.9186C6.44363 12.0281 6.53561 12.1805 6.57004 12.35L6.58337 12.5V17.3567L17.3567 6.58337H12.5C12.3011 6.58337 12.1104 6.50436 11.9697 6.3637C11.8291 6.22305 11.75 6.03229 11.75 5.83337C11.75 5.63446 11.8291 5.4437 11.9697 5.30304C12.1104 5.16239 12.3011 5.08337 12.5 5.08337H19.1667L19.3184 5.09837Z" fill="#666666"/>
</svg>
